<svg xmlns="http://www.w3.org/2000/svg" width="160.045" height="39.999" viewBox="0 0 160.045 39.999"><path d="M0,37.7a26.439,26.439,0,0,1,9.294-3.433,33.7,33.7,0,0,1,6.244-.4,55.614,55.614,0,0,1,5.916.451,57.548,57.548,0,0,1,10.862,2.5A68.3,68.3,0,0,0,39.945,39a40.4,40.4,0,0,0,4.651.69,37.755,37.755,0,0,0,5.676.077,39.317,39.317,0,0,0,18.043-5.493c.059-.036.12-.069.2-.117.007.076.017.133.017.19q0,4.646,0,9.291a.276.276,0,0,1-.19.3,48.543,48.543,0,0,1-10.468,3.44,45.96,45.96,0,0,1-5.136.781c-1.164.107-2.335.146-3.5.216-.109.007-.218.023-.326.035H46.933c-.085-.012-.169-.03-.254-.036-1.363-.1-2.727-.169-4.087-.3a41.548,41.548,0,0,1-4.96-.825,76.287,76.287,0,0,1-7.918-2.278A47.393,47.393,0,0,0,16.661,42.5a32.733,32.733,0,0,0-8.2.632A23.954,23.954,0,0,0,.461,46.34c-.151.1-.307.182-.461.273Z" transform="translate(0 -8.407)" fill="#fff"></path><path d="M16.226,0c.509.03,1.019.047,1.527.092,1.329.118,2.665.2,3.983.386,1.659.241,3.31.545,4.952.879A52.413,52.413,0,0,1,32.5,2.983c2.129.7,4.26,1.388,6.443,1.9a40.4,40.4,0,0,0,4.84.836,37.009,37.009,0,0,0,5.153.216A39.536,39.536,0,0,0,68.341.365c.04-.024.08-.049.122-.07.012-.006.029,0,.074,0V.516q0,4.245,0,8.49a.331.331,0,0,1-.205.341,42.509,42.509,0,0,1-11.949,4.341,43.333,43.333,0,0,1-10.286.778,49.1,49.1,0,0,1-12.391-2.132c-2.061-.624-4.1-1.31-6.166-1.928A44.873,44.873,0,0,0,20.65,8.954a40.537,40.537,0,0,0-6.487-.368,27.267,27.267,0,0,0-11.422,2.6c-.872.425-1.694.952-2.539,1.432l-.2.117V3.019c.74-.3,1.472-.617,2.221-.89A32.658,32.658,0,0,1,8.767.487c1.264-.181,2.54-.274,3.811-.4C13.07.044,13.564.029,14.056,0Z" fill="#fff"></path><path d="M0,21a1.378,1.378,0,0,0,.2-.1,22.265,22.265,0,0,1,8.357-3.392,33.635,33.635,0,0,1,7.549-.548,56.571,56.571,0,0,1,16.216,2.928,60.865,60.865,0,0,0,7.614,2.17c1.361.265,2.737.459,4.112.64a32.174,32.174,0,0,0,4.754.192,39.729,39.729,0,0,0,4.646-.368,39.692,39.692,0,0,0,9.957-2.7,36.326,36.326,0,0,0,4.911-2.485c.053-.032.109-.062.187-.105.008.072.02.129.02.186q0,4.163,0,8.325a.3.3,0,0,1-.174.292,38.233,38.233,0,0,1-11.271,4.432A40.265,40.265,0,0,1,52,31.263a46.343,46.343,0,0,1-6.784.094A54.163,54.163,0,0,1,31.58,28.621c-1.975-.637-3.963-1.241-5.965-1.787a39.512,39.512,0,0,0-5.709-1.04,38.955,38.955,0,0,0-6.022-.267,26.72,26.72,0,0,0-12.315,3.2c-.534.3-1.046.635-1.569.955Z" transform="translate(0 -4.207)" fill="#fff"></path><path d="M205.373,26.993c-.062.417-.114.836-.189,1.25a8.572,8.572,0,0,1-2.73,4.88,12.068,12.068,0,0,1-6.164,2.922,17.541,17.541,0,0,1-4.553.229,26.021,26.021,0,0,1-4.421-.763c-.971-.248-1.963-.414-2.937-.649a.893.893,0,0,0-1.016.658c-.014.06-.029.12-.045.189h-.791c.116-3.16.231-6.313.347-9.5a2.96,2.96,0,0,0,.357,0c.182-.023.256.048.3.227a7.779,7.779,0,0,0,1.1,2.484,9.042,9.042,0,0,0,5.856,3.827,8.688,8.688,0,0,0,5.132-.425,5.288,5.288,0,0,0,2.577-2.084,4.424,4.424,0,0,0-.832-5.462,13.731,13.731,0,0,0-3.134-2.068c-1.5-.705-3.028-1.366-4.53-2.076a15.164,15.164,0,0,1-4.521-3.056,8.51,8.51,0,0,1-2.426-4.28,12.626,12.626,0,0,1-.17-3.516,8.971,8.971,0,0,1,1.43-4.28,9.284,9.284,0,0,1,4.606-3.546,15.106,15.106,0,0,1,4.31-.907,16.433,16.433,0,0,1,5.545.572c1.029.275,2.06.54,3.092.8a.912.912,0,0,0,1.229-.849h.792q-.172,4.283-.346,8.577h-.592c-.041-.15-.082-.307-.128-.462a6.436,6.436,0,0,0-2.586-3.4,9.8,9.8,0,0,0-4.49-1.747,7.508,7.508,0,0,0-3.891.385,4.126,4.126,0,0,0-2.73,3.352,3.867,3.867,0,0,0,1.6,3.938,21.67,21.67,0,0,0,3.968,2.284c1.362.639,2.747,1.232,4.089,1.91a14.726,14.726,0,0,1,4.22,3.046,9,9,0,0,1,2.5,4.76c.064.409.111.82.165,1.23Z" transform="translate(-45.328 -0.248)" fill="#fff"></path><path d="M143.832,1.928v.618c-.389.064-.778.112-1.161.193-.879.186-1.14.5-1.184,1.4-.02.392-.032.785-.032,1.178q0,13.809,0,27.617a6.545,6.545,0,0,0,.125,1.166.957.957,0,0,0,.74.8c.423.106.858.168,1.288.246a2.064,2.064,0,0,0,.218.017v.629H131.862v-.623c.316-.038.631-.08.949-.114a1.43,1.43,0,0,0,1.5-1.594c.008-.141.005-.283.005-.425q0-12.994,0-25.99V6.816l-.033-.009c-.035.081-.074.162-.106.245q-5.43,14.25-10.856,28.5a.324.324,0,0,1-.365.256c-1.093-.013-2.186-.009-3.278,0a.273.273,0,0,1-.309-.2q-3.134-8.136-6.279-16.268Q110.8,13.4,108.506,7.458a.607.607,0,0,0-.132-.223c0,.073-.01.147-.01.219q0,12.547,0,25.094a6.461,6.461,0,0,0,.1,1.217,1.439,1.439,0,0,0,1.463,1.334c.371.042.747.053,1.137.08v.614h-9.522v-.618c.474-.085.947-.149,1.411-.258a1.183,1.183,0,0,0,1.032-1.221c.029-.375.051-.752.051-1.129q0-13.962,0-27.924A5.11,5.11,0,0,0,104,3.915,1.344,1.344,0,0,0,102.532,2.6l-.937-.046V1.928h.256q5.66,0,11.32-.005a.3.3,0,0,1,.338.233q4.6,12.016,9.2,24.029c.031.08.065.159.113.283.053-.132.092-.225.127-.319q4.5-12,9-24c.056-.15.114-.222.293-.222q5.684.009,11.367,0Z" transform="translate(-25.217 -0.478)" fill="#fff"></path><path d="M174.323,35.18V35.8H161.715v-.626c.357-.035.714-.075,1.072-.105a1.4,1.4,0,0,0,1.46-1.529q.012-.342.012-.684,0-14.006,0-28.013a7.171,7.171,0,0,0-.062-1.009,1.278,1.278,0,0,0-1.211-1.176c-.217-.028-.437-.039-.656-.055s-.437-.027-.669-.041V1.954h12.609v.617c-.3.029-.6.052-.891.084a4.546,4.546,0,0,0-.581.084,1.243,1.243,0,0,0-1.043,1.15,5.347,5.347,0,0,0-.052.727q0,14.266,0,28.533a4.467,4.467,0,0,0,.059.75,1.329,1.329,0,0,0,1.369,1.209c.39.027.781.047,1.194.072" transform="translate(-40.145 -0.485)" fill="#fff"></path></svg>